<?xml version="1.0" encoding="UTF-8" standalone="no"?>
<svg width="1024" height="1027" viewBox="0 0 1024 1027" fill="none" xmlns="http://www.w3.org/2000/svg">
<rect width="1024" height="1026.95" transform="translate(0 0.0230713)" fill="#FF0000"/>
<rect x="218.5" y="244.523" width="568" height="546" fill="white"/>
<rect x="218.5" y="244.523" width="568" height="546" stroke="#FF0000"/>
<path fill-rule="evenodd" clip-rule="evenodd" d="M506.677 939C793.867 939 936 814.439 936 526.422C936 238.405 793.867 25 506.677 25C219.489 25 29.5 225.483 29.5 513.5C29.5 801.518 219.489 939 506.677 939ZM312.017 410.137L419.926 429.657C427.262 408.722 436.853 394.149 448.702 385.945C460.551 377.456 477.054 373.214 498.213 373.214C529.528 373.214 550.829 378.164 562.113 388.067C573.399 397.686 579.042 413.956 579.042 436.873V448.757C557.599 457.811 519.09 467.572 463.512 478.038C422.324 485.962 390.727 495.298 368.721 506.049C346.999 516.518 330.072 531.796 317.941 551.883C305.81 571.691 299.744 594.325 299.744 619.787C299.744 658.267 313.004 690.098 339.521 715.277C366.323 740.459 402.858 753.05 449.126 753.05C475.362 753.05 500.047 748.098 523.182 738.194C546.315 728.293 568.037 713.437 588.351 693.632C589.196 695.897 590.607 700.564 592.583 707.638C597.097 723.199 600.906 734.942 604.009 742.863H721.651C711.213 721.361 704.02 701.271 700.069 682.599C696.403 663.644 694.568 634.36 694.568 594.748L695.837 455.546C695.837 403.77 690.478 368.262 679.758 349.022C669.319 329.5 651.122 313.514 625.167 301.066C599.213 288.333 559.715 281.968 506.677 281.968C448.278 281.968 404.269 292.437 374.645 313.372C345.025 334.309 324.148 366.565 312.017 410.137ZM506.677 544.669C539.685 537.595 563.807 531.513 579.042 526.422V550.186C579.042 578.762 577.489 598.145 574.386 608.328C569.872 623.891 560.42 637.047 546.034 647.798C526.567 661.944 506.114 669.018 484.671 669.018C465.489 669.018 449.689 662.936 437.276 650.768C424.864 638.602 418.658 624.174 418.658 607.481C418.658 590.506 426.414 576.5 441.932 565.464C452.087 558.675 473.669 551.743 506.677 544.669Z" fill="#FF0000"/>
</svg>
